<?xml version="1.0" standalone="no"?>
<!DOCTYPE svg PUBLIC "-//W3C//DTD SVG 20010904//EN"
 "http://www.w3.org/TR/2001/REC-SVG-20010904/DTD/svg10.dtd">
<svg version="1.0" xmlns="http://www.w3.org/2000/svg"
 width="525.000000pt" height="525.000000pt" viewBox="0 0 525.000000 525.000000"
 preserveAspectRatio="xMidYMid meet">
<metadata>
Created by potrace 1.14, written by Peter Selinger 2001-2017
</metadata>
<g transform="translate(0.000000,525.000000) scale(0.100000,-0.100000)"
fill="#000000" stroke="none">
<path d="M1626 4892 c-4 -3 -27 -7 -53 -7 -35 -2 -51 -8 -65 -25 -11 -14 -18
-17 -19 -9 0 8 -5 4 -11 -8 -6 -13 -17 -24 -25 -24 -21 -2 -27 -4 -39 -11 -6
-4 -25 -10 -43 -13 -27 -5 -76 -35 -57 -35 3 0 -5 -10 -17 -23 -133 -141 -173
-234 -163 -383 5 -78 13 -102 50 -157 27 -39 27 -44 -8 -86 -41 -48 -57 -62
-66 -56 -6 4 -13 -2 -17 -12 -3 -10 -13 -26 -21 -35 -8 -10 -11 -18 -6 -18 5
0 5 -4 -1 -8 -8 -6 -47 -77 -50 -92 0 -3 -19 -43 -42 -90 -23 -47 -43 -98 -45
-115 -1 -16 -8 -39 -15 -50 -7 -11 -13 -32 -13 -47 0 -16 -4 -28 -9 -28 -5 0
-7 -9 -4 -20 3 -11 0 -26 -6 -33 -6 -8 -8 -17 -4 -20 3 -4 0 -13 -6 -21 -7 -8
-10 -19 -7 -25 4 -5 -1 -16 -9 -25 -8 -8 -15 -19 -13 -23 3 -15 -15 -108 -25
-128 -6 -11 -10 -32 -9 -47 2 -18 -3 -28 -12 -28 -11 0 -12 -8 -6 -34 4 -18 3
-41 -2 -50 -5 -9 -6 -22 -2 -28 5 -7 9 -33 10 -58 1 -26 5 -56 8 -68 4 -13 3
-22 -3 -22 -6 0 -8 -6 -6 -12 10 -25 12 -113 3 -130 -5 -10 -4 -19 2 -23 7 -4
7 -13 0 -26 -8 -14 -7 -19 1 -19 6 0 9 -6 6 -14 -8 -20 9 -145 27 -197 8 -24
16 -64 18 -89 2 -25 7 -51 12 -58 4 -6 5 -16 2 -20 -3 -5 4 -23 15 -41 11 -19
18 -39 16 -45 -3 -7 3 -17 12 -23 13 -8 40 -68 46 -103 1 -8 66 -144 76 -160
5 -8 16 -29 24 -46 8 -17 32 -59 55 -92 22 -34 40 -65 40 -71 0 -5 5 -11 11
-13 5 -2 10 -26 9 -53 0 -28 0 -61 -1 -75 0 -14 -4 -36 -9 -50 -9 -24 -18 -89
-19 -137 -1 -14 -7 -23 -16 -23 -8 0 -15 -9 -15 -19 0 -22 -20 -32 -51 -26
-18 4 -20 1 -15 -23 4 -17 3 -22 -2 -14 -10 15 -25 1 -51 -51 -12 -23 -23 -32
-41 -32 -18 0 -25 -5 -24 -17 1 -10 -4 -18 -11 -18 -8 0 -17 -9 -20 -20 -3
-11 -10 -20 -15 -20 -10 0 -24 -48 -21 -75 1 -14 -7 -24 -30 -32 -27 -11 -30
-15 -19 -28 15 -19 -2 -45 -31 -45 -22 0 -36 -20 -19 -30 9 -5 8 -9 -3 -13 -9
-3 -13 -16 -12 -31 3 -20 -3 -30 -22 -40 -18 -9 -22 -15 -14 -20 8 -6 5 -14
-10 -27 -13 -11 -24 -27 -25 -35 -5 -30 -14 -44 -29 -44 -8 0 -15 -5 -15 -11
0 -5 4 -7 10 -4 5 3 10 1 10 -4 0 -6 -7 -11 -17 -11 -14 0 -14 -2 2 -20 18
-19 17 -20 -5 -20 -19 0 -20 -2 -10 -15 7 -8 20 -15 29 -15 14 0 14 -2 1 -10
-9 -6 -16 -27 -17 -57 -3 -97 -6 -124 -14 -129 -5 -2 -6 -11 -2 -19 3 -8 0
-15 -7 -15 -9 0 -9 -4 -3 -13 14 -17 24 -65 15 -71 -4 -2 -7 -35 -7 -73 0 -37
-4 -71 -8 -74 -4 -3 -9 -17 -9 -30 -1 -13 -6 -30 -11 -36 -6 -9 -5 -13 4 -13
12 0 12 -2 0 -9 -9 -6 -10 -11 -3 -15 6 -4 9 -13 5 -21 -3 -9 1 -23 8 -32 10
-11 10 -14 2 -9 -9 5 -11 2 -7 -8 6 -14 206 -16 1990 -16 1233 0 1984 4 1984
9 0 6 -4 12 -8 15 -4 2 -9 19 -10 38 -3 43 -32 129 -49 146 -7 8 -12 26 -11
42 1 16 -6 37 -15 48 -9 10 -17 24 -17 30 0 7 -4 12 -8 12 -5 0 -7 15 -5 33 2
31 -1 44 -27 99 -7 14 -10 31 -6 36 3 6 2 13 -4 17 -6 4 -8 10 -5 14 7 12 -44
192 -63 221 -9 14 -16 35 -17 48 0 12 -6 27 -14 32 -13 7 -17 18 -23 68 -1 6
-5 12 -10 12 -4 0 -8 9 -8 20 0 11 -7 20 -15 20 -8 0 -15 9 -15 20 0 11 -5 20
-11 20 -6 0 -8 8 -4 19 4 12 -7 35 -35 69 -22 28 -40 57 -40 63 0 7 -3 9 -7 5
-4 -4 -13 8 -19 26 -6 18 -17 32 -23 31 -6 -2 -11 2 -11 9 0 7 -20 31 -45 55
-46 43 -58 73 -29 73 8 0 13 4 10 9 -6 9 48 26 59 19 2 -2 12 7 20 20 9 12 26
22 37 22 12 0 19 3 16 6 -9 8 54 70 80 78 12 4 22 16 22 26 0 10 7 20 15 24 8
3 15 16 15 28 0 13 11 34 25 46 20 19 23 28 14 43 -5 11 -8 23 -5 28 3 4 7 21
10 37 3 16 15 47 26 69 11 21 20 46 20 54 0 8 7 23 17 33 9 11 11 18 5 18 -7
0 -12 7 -12 15 0 8 5 15 10 15 6 0 10 7 10 15 0 19 21 56 40 71 8 7 12 16 8
20 -4 4 -3 13 2 20 6 6 10 16 8 20 -4 16 13 52 27 57 8 4 12 16 10 34 -5 38 3
63 21 63 11 0 13 6 9 20 -4 11 -2 20 4 20 6 0 11 12 11 28 0 15 5 45 12 67 6
22 12 42 13 45 1 3 7 24 13 47 7 23 12 45 11 50 -1 4 -1 10 0 13 1 3 3 29 5
59 2 29 7 56 12 60 5 3 8 17 6 31 -2 14 -4 62 -4 108 -1 64 -5 82 -16 82 -12
0 -12 3 -2 15 7 8 10 15 8 15 -3 0 -2 20 2 45 4 27 3 45 -3 45 -6 0 -7 20 -3
50 4 32 3 50 -4 50 -5 0 -10 9 -10 21 0 11 -5 29 -11 40 -12 24 -14 29 -38
139 -11 47 -24 100 -29 118 -6 17 -8 32 -5 32 3 0 0 7 -7 15 -7 9 -15 28 -16
43 -7 60 -13 81 -29 105 -11 18 -14 36 -10 61 6 28 4 37 -9 42 -13 5 -14 9 -5
20 9 11 7 14 -11 14 -13 0 -21 3 -17 6 3 4 -1 13 -9 21 -8 8 -11 19 -8 25 4 7
2 8 -4 4 -7 -4 -12 -2 -12 5 0 8 -4 8 -15 -1 -13 -11 -14 -10 -9 3 3 9 -3 24
-15 36 -12 12 -23 30 -24 42 -2 11 -9 24 -17 29 -7 5 -10 15 -6 25 5 15 4 16
-9 5 -14 -11 -14 -10 -5 15 6 15 20 35 32 44 12 10 22 25 24 34 1 9 17 34 35
56 25 32 33 52 35 91 2 31 -1 50 -8 50 -6 0 -8 11 -5 28 3 15 -1 38 -8 52 -8
14 -14 37 -15 51 0 15 -7 32 -15 39 -8 7 -15 18 -15 24 0 6 -22 34 -50 61 -27
28 -49 56 -50 63 0 6 -9 12 -21 12 -11 0 -17 5 -14 10 3 6 -5 14 -19 20 -14 5
-26 14 -26 20 0 5 -7 10 -16 10 -8 0 -13 4 -10 9 4 5 -9 8 -26 7 -38 -2 -71
11 -63 25 9 13 -9 11 -23 -3 -9 -9 -15 -10 -20 -2 -4 6 -18 15 -32 19 -34 11
-71 41 -62 51 4 5 -4 0 -17 -11 -14 -11 -21 -14 -17 -7 9 15 -20 17 -30 1 -8
-13 -51 -3 -72 17 -11 11 -17 12 -22 4 -4 -6 -43 -13 -89 -16 -45 -2 -90 -8
-100 -13 -10 -6 -29 -12 -43 -15 -26 -4 -78 -46 -78 -63 0 -5 -16 -24 -35 -43
-19 -19 -35 -44 -35 -55 0 -11 -9 -28 -20 -37 -18 -16 -21 -16 -35 -1 -9 8
-19 13 -22 9 -3 -3 -12 -1 -19 5 -9 7 -19 7 -34 -1 -11 -6 -20 -7 -19 -3 4 26
-2 33 -20 23 -14 -7 -22 -7 -26 0 -4 6 -15 8 -26 5 -11 -4 -19 -2 -19 5 0 7
-12 10 -29 8 -16 -1 -36 3 -44 11 -9 7 -22 11 -29 8 -7 -2 -22 1 -33 6 -12 7
-98 11 -223 12 -169 0 -204 3 -212 15 -7 11 -10 12 -10 2 0 -15 -56 -14 -77 0
-6 5 -14 4 -18 -2 -3 -6 -12 -7 -18 -3 -20 13 -97 31 -102 23 -5 -8 -79 -5
-93 4 -6 3 -17 -1 -26 -9 -12 -12 -20 -13 -34 -6 -11 6 -22 8 -25 5 -8 -9 -29
35 -22 46 3 6 0 10 -9 10 -8 0 -26 13 -39 30 -67 79 -182 160 -247 175 -8 2
-37 8 -65 15 -63 14 -131 20 -139 12z"/>
</g>
</svg>
